<?xml version="1.0" standalone="no"?>
<!DOCTYPE svg PUBLIC "-//W3C//DTD SVG 20010904//EN"
 "http://www.w3.org/TR/2001/REC-SVG-20010904/DTD/svg10.dtd">
<svg version="1.0" xmlns="http://www.w3.org/2000/svg"
 width="256.000000pt" height="256.000000pt" viewBox="0 0 256.000000 256.000000"
 preserveAspectRatio="xMidYMid meet">
<metadata>
Created by potrace 1.11, written by Peter Selinger 2001-2013
</metadata>
<g transform="translate(0.000000,256.000000) scale(0.100000,-0.100000)"
fill="#000000" stroke="none">
<path d="M260 2501 c-46 -10 -110 -43 -136 -73 -12 -12 -32 -43 -45 -68 l-24
-45 0 -1035 0 -1035 27 -50 c31 -59 57 -84 118 -116 l45 -24 1035 0 1035 0 50
27 c59 31 84 57 116 118 l24 45 0 1035 0 1035 -24 45 c-32 61 -57 87 -116 118
l-50 27 -1010 1 c-556 1 -1026 -1 -1045 -5z m1099 -835 c139 -139 146 -144
208 -161 110 -30 224 -119 272 -212 77 -152 75 -447 -4 -499 -23 -15 -27 -15
-49 -1 -36 24 -56 97 -62 227 -3 63 -12 139 -21 169 l-14 54 -242 -241 c-156
-155 -252 -243 -270 -247 -66 -17 -83 -5 -299 213 -131 131 -209 217 -213 235
-12 48 4 79 86 163 l80 82 -20 33 c-38 62 -20 171 35 220 54 47 163 87 270 98
44 5 84 9 89 10 6 0 75 -64 154 -143z"/>
<path d="M1037 1729 c-65 -15 -145 -59 -168 -91 -27 -37 -31 -110 -9 -133 14
-13 28 -2 140 110 132 132 133 137 37 114z"/>
<path d="M1066 1601 l-138 -138 73 -23 c41 -12 103 -28 139 -36 64 -13 65 -13
83 10 36 49 113 42 142 -14 44 -86 -74 -166 -137 -92 -18 22 -37 30 -93 39
-38 7 -110 26 -160 42 l-90 30 -82 -82 c-61 -59 -83 -88 -83 -107 0 -19 45
-70 198 -223 168 -168 202 -197 227 -197 26 0 63 33 270 240 l240 240 -225
225 -225 225 -139 -139z"/>
</g>
</svg>
